# xmcd
#
# Track frame offsets: 
#        150
#        10666
#        22878
#        34186
#        46337
#        61645
#        74235
#        85019
#        97425
#        109284
#        121885
#        132121
#        148029
#        159739
#        178490
#        200540
#        220698
#        241138
#        258587
#        273329
#
# Disc length: 3814 seconds
#
# Revision: 0
# Processed by: cddbd v1.5.2PL0 Copyright (c) Steve Scherf et al.
# Submitted via: ExactAudioCopy v0.99pb5
#
DISCID=260ee414
DTITLE=Various Artist - Original Hits - Country Disc2
DYEAR=2009
DGENRE=Country
TTITLE0=Jim Reeves - He'll Have To Go
TTITLE1=Charlie Rich - The Most Beautiful Girl In The World
TTITLE2=Crystal Gayle - Don't It Make My Brown Eyes Blue
TTITLE3=Glen Campbell - By The Time I Get To Phoenix
TTITLE4=Slim Whitman - Can't Help Falling In Love
TTITLE5=Wanda Jackson - Funny How Time Slips Away
TTITLE6=Willie Nelson - Hello Walls
TTITLE7=Faron Young - Sweet Dreams
TTITLE8=Sonny James - Young Love
TTITLE9=Tex Ritter - High Noon (Do Not Forsake Me)
TTITLE10=Tennessee Ernie Ford - King Of The Road
TTITLE11=Kenny Rogers And Dottie West - Just The Way You Are
TTITLE12=Lacy J. Dalton - Love Hurts
TTITLE13=Juice Newton - Angel Of The Morning
TTITLE14=Deana Carter - Strawberry Wine
TTITLE15=Steve Wariner - Two Teardrops
TTITLE16=Suzy Bogguss - Take It To The Limit
TTITLE17=Dan Seals - Meet Me In Montana
TTITLE18=Shelby Lynne - Lonesome
TTITLE19=Tanya Tucker - Would You Lay With Me (In A Field Of Stone)
EXTD=
EXTT0=
EXTT1=
EXTT2=
EXTT3=
EXTT4=
EXTT5=
EXTT6=
EXTT7=
EXTT8=
EXTT9=
EXTT10=
EXTT11=
EXTT12=
EXTT13=
EXTT14=
EXTT15=
EXTT16=
EXTT17=
EXTT18=
EXTT19=
PLAYORDER=
